{
  "accessors": [
    {
      "bufferView": 2,
      "componentType": 5126,
      "count": 946,
      "max": [
        1.846848964691162,
        0.9941819906234741,
        4.4948577880859375
      ],
      "min": [
        -1.9120299816131592,
        -1.6164000034332275,
        -0.03435400128364563
      ],
      "type": "VEC3"
    },
    {
      "bufferView": 2,
      "byteOffset": 11352,
      "componentType": 5126,
      "count": 946,
      "max": [
        1.0,
        1.0,
        0.9999990463256836
      ],
      "min": [
        -1.0,
        -1.0,
        -1.0
      ],
      "type": "VEC3"
    },
    {
      "bufferView": 3,
      "componentType": 5126,
      "count": 946,
      "max": [
        0.9998568892478943,
        0.9975475072860718,
        0.9997032880783081,
        1.0
      ],
      "min": [
        -0.9999852776527405,
        -0.9998288154602051,
        -0.9999995827674866,
        -1.0
      ],
      "type": "VEC4"
    },
    {
      "bufferView": 1,
      "componentType": 5126,
      "count": 946,
      "max": [
        0.9956619739532471,
        0.910269021987915
      ],
      "min": [
        0.004133000038564205,
        0.004137999843806028
      ],
      "type": "VEC2"
    },
    {
      "bufferView": 0,
      "componentType": 5125,
      "count": 4656,
      "type": "SCALAR"
    },
    {
      "bufferView": 2,
      "byteOffset": 22704,
      "componentType": 5126,
      "count": 423,
      "max": [
        1.6226439476013184,
        -0.35231199860572815,
        4.332300186157227
      ],
      "min": [
        -1.622642993927002,
        -0.8884239792823792,
        0.1868399977684021
      ],
      "type": "VEC3"
    },
    {
      "bufferView": 2,
      "byteOffset": 27780,
      "componentType": 5126,
      "count": 423,
      "max": [
        0.9997743964195251,
        0.9999954700469971,
        0.9997119307518005
      ],
      "min": [
        -0.9997743964195251,
        -0.9999991655349731,
        -0.9513922929763794
      ],
      "type": "VEC3"
    },
    {
      "bufferView": 3,
      "byteOffset": 15136,
      "componentType": 5126,
      "count": 423,
      "max": [
        0.999756395816803,
        0.9991201162338257,
        0.998904287815094,
        1.0
      ],
      "min": [
        -0.9999691247940063,
        -0.9998844265937805,
        -0.9999496340751648,
        -1.0
      ],
      "type": "VEC4"
    },
    {
      "bufferView": 1,
      "byteOffset": 7568,
      "componentType": 5126,
      "count": 423,
      "max": [
        0.9959520101547241,
        0.8150749802589417
      ],
      "min": [
        0.0040480000898242,
        0.0040480000898242
      ],
      "type": "VEC2"
    },
    {
      "bufferView": 0,
      "byteOffset": 18624,
      "componentType": 5125,
      "count": 1914,
      "type": "SCALAR"
    },
    {
      "bufferView": 2,
      "byteOffset": 32856,
      "componentType": 5126,
      "count": 3659,
      "max": [
        1.87746000289917,
        -0.741129994392395,
        4.17177677154541
      ],
      "min": [
        -1.915719985961914,
        -2.595860004425049,
        0.15282000601291656
      ],
      "type": "VEC3"
    },
    {
      "bufferView": 2,
      "byteOffset": 76764,
      "componentType": 5126,
      "count": 3659,
      "max": [
        0.9999997615814209,
        0.9998722672462463,
        0.999808132648468
      ],
      "min": [
        -0.9999997615814209,
        -0.998557984828949,
        -0.9999995231628418
      ],
      "type": "VEC3"
    },
    {
      "bufferView": 3,
      "byteOffset": 21904,
      "componentType": 5126,
      "count": 3659,
      "max": [
        0.9994473457336426,
        0.9996780157089233,
        0.9986255764961243,
        1.0
      ],
      "min": [
        -0.9994490742683411,
        -0.998323380947113,
        -0.9976487159729004,
        -1.0
      ],
      "type": "VEC4"
    },
    {
      "bufferView": 1,
      "byteOffset": 10952,
      "componentType": 5126,
      "count": 3659,
      "max": [
        0.9950370192527771,
        0.8894029855728149
      ],
      "min": [
        0.00496299983933568,
        0.00496299983933568
      ],
      "type": "VEC2"
    },
    {
      "bufferView": 0,
      "byteOffset": 26280,
      "componentType": 5125,
      "count": 17568,
      "type": "SCALAR"
    }
  ],
  "asset": {
    "extras": {
      "author": "Egi (https://sketchfab.com/dzero808)",
      "license": "CC-BY-NC-ND-4.0 (http://creativecommons.org/licenses/by-nc-nd/4.0/)",
      "source": "https://sketchfab.com/3d-models/anti-thief-bag-293fb6a8cafd4eac8256391c04f41668",
      "title": "Anti-Thief Bag"
    },
    "generator": "Sketchfab-12.67.0",
    "version": "2.0"
  },
  "bufferViews": [
    {
      "buffer": 0,
      "byteLength": 96552,
      "name": "floatBufferViews",
      "target": 34963
    },
    {
      "buffer": 0,
      "byteLength": 40224,
      "byteOffset": 96552,
      "byteStride": 8,
      "name": "floatBufferViews",
      "target": 34962
    },
    {
      "buffer": 0,
      "byteLength": 120672,
      "byteOffset": 136776,
      "byteStride": 12,
      "name": "floatBufferViews",
      "target": 34962
    },
    {
      "buffer": 0,
      "byteLength": 80448,
      "byteOffset": 257448,
      "byteStride": 16,
      "name": "floatBufferViews",
      "target": 34962
    }
  ],
  "buffers": [
    {
      "byteLength": 337896,
      "uri": "scene.bin"
    }
  ],
  "images": [
    {
      "uri": "textures/material_baseColor.png"
    },
    {
      "uri": "textures/material_metallicRoughness.png"
    },
    {
      "uri": "textures/material_normal.png"
    },
    {
      "uri": "textures/material_1_baseColor.png"
    },
    {
      "uri": "textures/material_1_metallicRoughness.png"
    },
    {
      "uri": "textures/material_1_normal.png"
    },
    {
      "uri": "textures/material_2_baseColor.png"
    },
    {
      "uri": "textures/material_2_metallicRoughness.png"
    },
    {
      "uri": "textures/material_2_normal.png"
    }
  ],
  "materials": [
    {
      "doubleSided": true,
      "name": "material",
      "normalTexture": {
        "index": 2
      },
      "occlusionTexture": {
        "index": 1
      },
      "pbrMetallicRoughness": {
        "baseColorTexture": {
          "index": 0
        },
        "metallicFactor": 0.05,
        "metallicRoughnessTexture": {
          "index": 1
        }
      }
    },
    {
      "doubleSided": true,
      "name": "material_1",
      "normalTexture": {
        "index": 5
      },
      "occlusionTexture": {
        "index": 4
      },
      "pbrMetallicRoughness": {
        "baseColorTexture": {
          "index": 3
        },
        "metallicFactor": 0.0,
        "metallicRoughnessTexture": {
          "index": 4
        }
      }
    },
    {
      "doubleSided": true,
      "name": "material_2",
      "normalTexture": {
        "index": 8
      },
      "occlusionTexture": {
        "index": 7
      },
      "pbrMetallicRoughness": {
        "baseColorTexture": {
          "index": 6
        },
        "metallicFactor": 0.0,
        "metallicRoughnessTexture": {
          "index": 7
        }
      }
    }
  ],
  "meshes": [
    {
      "name": "Object_0",
      "primitives": [
        {
          "attributes": {
            "NORMAL": 1,
            "POSITION": 0,
            "TANGENT": 2,
            "TEXCOORD_0": 3
          },
          "indices": 4,
          "material": 0,
          "mode": 4
        }
      ]
    },
    {
      "name": "Object_1",
      "primitives": [
        {
          "attributes": {
            "NORMAL": 6,
            "POSITION": 5,
            "TANGENT": 7,
            "TEXCOORD_0": 8
          },
          "indices": 9,
          "material": 1,
          "mode": 4
        }
      ]
    },
    {
      "name": "Object_2",
      "primitives": [
        {
          "attributes": {
            "NORMAL": 11,
            "POSITION": 10,
            "TANGENT": 12,
            "TEXCOORD_0": 13
          },
          "indices": 14,
          "material": 2,
          "mode": 4
        }
      ]
    }
  ],
  "nodes": [
    {
      "children": [
        1
      ],
      "matrix": [
        0.1666666716337204,
        0.0,
        0.0,
        0.0,
        0.0,
        3.700743525707937e-17,
        -0.1666666716337204,
        0.0,
        0.0,
        0.1666666716337204,
        3.700743525707937e-17,
        0.0,
        0.0,
        0.0,
        0.0,
        1.0
      ],
      "name": "Sketchfab_model"
    },
    {
      "children": [
        2,
        3,
        4
      ],
      "name": "Anti-Thief Bag.obj.cleaner.materialmerger.gles"
    },
    {
      "mesh": 0,
      "name": "Object_2"
    },
    {
      "mesh": 1,
      "name": "Object_3"
    },
    {
      "mesh": 2,
      "name": "Object_4"
    }
  ],
  "samplers": [
    {
      "magFilter": 9729,
      "minFilter": 9987,
      "wrapS": 10497,
      "wrapT": 10497
    }
  ],
  "scene": 0,
  "scenes": [
    {
      "name": "Sketchfab_Scene",
      "nodes": [
        0
      ]
    }
  ],
  "textures": [
    {
      "sampler": 0,
      "source": 0
    },
    {
      "sampler": 0,
      "source": 1
    },
    {
      "sampler": 0,
      "source": 2
    },
    {
      "sampler": 0,
      "source": 3
    },
    {
      "sampler": 0,
      "source": 4
    },
    {
      "sampler": 0,
      "source": 5
    },
    {
      "sampler": 0,
      "source": 6
    },
    {
      "sampler": 0,
      "source": 7
    },
    {
      "sampler": 0,
      "source": 8
    }
  ]
}
